<?xml version="1.0" encoding="UTF-8" standalone="no"?>
<!DOCTYPE svg PUBLIC "-//W3C//DTD SVG 20010904//EN"
              "http://www.w3.org/TR/2001/REC-SVG-20010904/DTD/svg10.dtd">

<svg xmlns="http://www.w3.org/2000/svg"
     width="7.11111in" height="7.11111in"
     viewBox="0 0 512 512">
  <path id="@"
        fill="lightyellow" stroke="lightyellow" stroke-width="1"
        d="M 332.50,143.00
           C 334.50,134.50 341.50,131.50 350.00,131.50
             351.50,131.50 353.50,131.50 355.50,132.00
             364.00,133.00 369.50,138.50 369.50,146.00
             369.50,147.50 369.50,149.00 369.00,150.50
             369.00,150.50 325.50,316.00 325.50,316.00
             324.50,320.00 324.00,326.00 324.00,329.00
             324.00,335.00 328.00,339.00 335.50,339.00
             349.50,339.00 370.00,329.50 387.50,311.50
             409.00,289.00 421.50,257.00 421.50,221.50
             421.50,139.00 363.00,86.00 272.50,86.00
             172.50,86.00 94.50,162.00 94.50,259.00
             94.50,355.00 163.00,422.00 262.00,422.00
             305.00,422.00 345.50,409.50 379.00,387.50
             381.50,385.50 384.00,385.00 387.00,385.00
             394.00,385.00 400.50,390.00 404.00,395.50
             406.00,399.00 407.00,403.00 407.00,406.50
             407.00,412.00 404.50,417.00 399.50,420.50
             358.00,445.50 314.50,457.00 257.50,457.00
             197.50,457.00 148.00,437.00 112.50,402.00
             76.50,366.50 55.50,316.50 55.50,258.00
             55.50,141.00 148.00,51.00 272.50,51.00
             385.00,51.00 458.50,119.50 458.50,218.50
             458.50,264.00 444.00,303.00 416.00,333.00
             392.50,358.50 360.00,374.50 329.50,374.50
             298.00,374.50 290.50,360.00 290.50,341.50
             290.50,340.50 290.50,339.00 290.50,338.00
             270.50,362.50 250.50,372.00 220.50,372.00
             180.00,372.00 152.00,340.00 152.00,289.00
             152.00,203.50 206.00,129.00 275.50,129.00
             302.50,129.00 320.50,140.00 328.00,161.50
             328.00,161.50 332.50,143.00 332.50,143.00 Z
           M 224.50,191.00
           C 205.00,217.00 192.00,258.00 192.00,288.00
             192.00,321.00 203.50,337.50 227.00,337.50
             247.50,337.50 267.50,325.50 284.00,302.00
             302.50,276.00 312.00,237.00 312.00,200.00
             312.00,176.50 297.50,162.00 276.50,162.00
             257.50,162.00 239.00,172.00 224.50,191.00 Z" />
</svg>
